# xmcd CD database file
# Copyright (C) 1993-1998 Ti Kan
#
# Track frame offsets:
# 150
# 16495
# 34332
# 54375
# 74397
# 90912
# 104317
# 124067
# 140452
# 169512
#
# Disc length: 2602 seconds
# Revision: 0
# Processed by: cddbd v1.4b41PL1 Copyright (c) Steve Scherf et al.
# Submitted via: CDSpectrumPro v3.2.328
#
DISCID=7e0a280a
DTITLE=COMA - COMA
DYEAR=1900
DGENRE=
TTITLE0=Une araignée au plafond
TTITLE1=Ça va sauter
TTITLE2=Cosmos
TTITLE3=Carmen
TTITLE4=Les belles manières
TTITLE5=Tourner la terre
TTITLE6=Vide vie
TTITLE7=Douce lumière
TTITLE8=Le lézard
TTITLE9=Une araignée au plafond
EXTD=
EXTT0=
EXTT1=
EXTT2=
EXTT3=
EXTT4=
EXTT5=
EXTT6=
EXTT7=
EXTT8=
EXTT9=
PLAYORDER=
